# xmcd CD database file
#
# Track frame offsets:
#	150
#	17935
#	37545
#	45180
#	54010
#	67990
#	86060
#	105672
#	127410
#	150982
#	166127
#
# Disc length: 2356 seconds
#
# Revision: 0
# Processed by: cddbd v1.5.2PL0 Copyright (c) Steve Scherf et al.
# Submitted via: CDex 1.51
#
DISCID=7709320b
DTITLE=Varios - Descanso
DYEAR=1999
DGENRE=New Age
TTITLE0=The sea-Gian Franco Reverberi
TTITLE1=Falling star-John sposito
TTITLE2=Under breath-Mysia
TTITLE3=Echoes of the night-Mysia
TTITLE4=Autumn forest-Tony Flynn
TTITLE5=Sweet touches-Gian Franco Reverberi
TTITLE6=Wings of an angel-David Lindemann
TTITLE7=Voyage to the valley-David Lindemann
TTITLE8=Mutability-Scopece
TTITLE9=May be tomorrow-John Sposito
TTITLE10=Against the wind-Mysia
EXTD=YEAR: 1999
EXTT0=
EXTT1=
EXTT2=
EXTT3=
EXTT4=
EXTT5=
EXTT6=
EXTT7=
EXTT8=
EXTT9=
EXTT10=
PLAYORDER=
